<svg width="40" height="40" viewBox="0 0 40 40" fill="none" xmlns="http://www.w3.org/2000/svg">
<circle cx="20" cy="20" r="20" fill="white"/>
<path d="M29.0245 11.5801C27.3414 10.7927 25.5419 10.2204 23.6605 9.89453C23.4294 10.3123 23.1595 10.8742 22.9734 11.3211C20.9734 11.0204 18.9918 11.0204 17.0286 11.3211C16.8425 10.8742 16.5664 10.3123 16.3333 9.89453C14.4499 10.2204 12.6482 10.7948 10.9652 11.5843C7.57053 16.7141 6.65029 21.7165 7.11041 26.6478C9.36194 28.3292 11.5439 29.3506 13.6891 30.019C14.2188 29.29 14.6912 28.5151 15.0981 27.6985C14.3231 27.404 13.5807 27.0405 12.8793 26.6186C13.0654 26.4808 13.2474 26.3366 13.4233 26.1883C17.7014 28.1893 22.3496 28.1893 26.5766 26.1883C26.7545 26.3366 26.9365 26.4808 27.1206 26.6186C26.4171 27.0426 25.6727 27.406 24.8977 27.7006C25.3046 28.5151 25.775 29.2921 26.3067 30.0211C28.4539 29.3527 30.638 28.3313 32.8895 26.6478C33.4294 20.9311 31.9672 15.9747 29.0245 11.5801ZM15.6809 23.6151C14.3967 23.6151 13.3435 22.4162 13.3435 20.9562C13.3435 19.4962 14.3742 18.2952 15.6809 18.2952C16.9877 18.2952 18.0409 19.4941 18.0184 20.9562C18.0204 22.4162 16.9877 23.6151 15.6809 23.6151ZM24.319 23.6151C23.0347 23.6151 21.9815 22.4162 21.9815 20.9562C21.9815 19.4962 23.0122 18.2952 24.319 18.2952C25.6257 18.2952 26.6789 19.4941 26.6564 20.9562C26.6564 22.4162 25.6257 23.6151 24.319 23.6151Z" fill="black"/>
</svg>
