<svg width="40" height="40" viewBox="0 0 40 40" fill="none" xmlns="http://www.w3.org/2000/svg">
<circle cx="20" cy="20" r="20" fill="white"/>
<path d="M30.8332 24.5391C30.8332 28.4825 28.4823 30.8333 24.539 30.8333H23.2498C22.654 30.8333 22.1665 30.3458 22.1665 29.75V23.4991C22.1665 23.2066 22.4048 22.9575 22.6973 22.9575L24.604 22.925C24.7557 22.9141 24.8857 22.8058 24.9182 22.6541L25.2974 20.585C25.3299 20.39 25.1782 20.2058 24.9723 20.2058L22.6648 20.2383C22.3615 20.2383 22.1232 20 22.1124 19.7075L22.069 17.0533C22.069 16.88 22.2098 16.7283 22.394 16.7283L24.994 16.685C25.1782 16.685 25.319 16.5441 25.319 16.36L25.2757 13.7599C25.2757 13.5758 25.1348 13.435 24.9507 13.435L22.0257 13.4783C20.2273 13.5108 18.7974 14.9841 18.8299 16.7825L18.884 19.7616C18.8948 20.065 18.6565 20.3033 18.3532 20.3141L17.0532 20.3358C16.869 20.3358 16.7282 20.4766 16.7282 20.6608L16.7607 22.7191C16.7607 22.9033 16.9015 23.0441 17.0857 23.0441L18.3857 23.0225C18.689 23.0225 18.9273 23.2608 18.9382 23.5533L19.0357 29.7283C19.0465 30.335 18.559 30.8333 17.9523 30.8333H15.4607C11.5173 30.8333 9.1665 28.4825 9.1665 24.5283V15.4608C9.1665 11.5175 11.5173 9.16663 15.4607 9.16663H24.539C28.4823 9.16663 30.8332 11.5175 30.8332 15.4608V24.5391Z" fill="black"/>
</svg>
