<svg width="40" height="40" viewBox="0 0 40 40" fill="none" xmlns="http://www.w3.org/2000/svg">
<circle cx="20" cy="20" r="20" fill="white"/>
<path d="M24.539 9.16663H15.4607C11.5173 9.16663 9.1665 11.5175 9.1665 15.4608V24.5283C9.1665 28.4825 11.5173 30.8333 15.4607 30.8333H24.5282C28.4715 30.8333 30.8223 28.4825 30.8223 24.5391V15.4608C30.8332 11.5175 28.4823 9.16663 24.539 9.16663ZM19.9998 24.2033C17.6815 24.2033 15.7965 22.3183 15.7965 20C15.7965 17.6816 17.6815 15.7966 19.9998 15.7966C22.3182 15.7966 24.2032 17.6816 24.2032 20C24.2032 22.3183 22.3182 24.2033 19.9998 24.2033ZM26.4132 14.4533C26.359 14.5833 26.2832 14.7025 26.1857 14.8108C26.0773 14.9083 25.9582 14.9841 25.8282 15.0383C25.6982 15.0925 25.5573 15.125 25.4165 15.125C25.124 15.125 24.8532 15.0166 24.6473 14.8108C24.5498 14.7025 24.474 14.5833 24.4198 14.4533C24.3657 14.3233 24.3332 14.1825 24.3332 14.0416C24.3332 13.9008 24.3657 13.76 24.4198 13.63C24.474 13.4891 24.5498 13.3808 24.6473 13.2725C24.8965 13.0233 25.2757 12.9041 25.6223 12.98C25.6982 12.9908 25.7632 13.0125 25.8282 13.045C25.8932 13.0666 25.9582 13.0991 26.0232 13.1425C26.0773 13.175 26.1315 13.2291 26.1857 13.2725C26.2832 13.3808 26.359 13.4891 26.4132 13.63C26.4673 13.76 26.4998 13.9008 26.4998 14.0416C26.4998 14.1825 26.4673 14.3233 26.4132 14.4533Z" fill="black"/>
</svg>
