<svg width="80" height="80" viewBox="0 0 80 80" fill="none" xmlns="http://www.w3.org/2000/svg">
<circle cx="40" cy="40" r="40" fill="black"/>
<path fill-rule="evenodd" clip-rule="evenodd" d="M33.0953 20H60V46.9047C60 54.1071 54.1071 60 46.9047 60H33.0953C25.8929 60 20 54.1071 20 46.9047V33.0953C20 25.8929 25.8929 20 33.0953 20Z" fill="white"/>
<path fill-rule="evenodd" clip-rule="evenodd" d="M50.1587 51.3071C50.3846 51.0753 50.806 50.6539 51.0689 50.4027C51.3318 50.1516 51.4363 50.0706 51.5319 50.0231C51.6276 49.9755 51.7145 49.9614 51.7813 49.9732C51.8483 49.9849 51.8952 50.0224 51.928 50.067C51.9609 50.1116 51.9797 50.1633 51.9973 50.2537C52.0149 50.3441 52.0313 50.4731 52.0572 50.6562C52.083 50.8394 52.1182 51.0765 52.1452 51.2842C52.1722 51.492 52.191 51.6703 52.1886 51.7912C52.1863 51.9121 52.1628 51.9755 52.1135 52.0448C52.0642 52.114 51.9891 52.1892 51.9198 52.2431C51.8506 52.2971 51.7872 52.33 51.7121 52.3452C51.637 52.3605 51.5501 52.3581 51.4468 52.3499C51.3436 52.3417 51.2238 52.3276 51.1111 52.3112C50.9985 52.2948 50.8929 52.276 50.786 52.2584C50.6792 52.2408 50.5713 52.2243 50.448 52.2055C50.3248 52.1868 50.1863 52.1657 50.0888 52.1457C49.9914 52.1258 49.9351 52.107 49.8963 52.0753C49.8576 52.0436 49.8365 51.999 49.8224 51.9521C49.8083 51.9051 49.8013 51.8558 49.8107 51.8006C49.8201 51.7455 49.8459 51.6844 49.8741 51.6328C49.9022 51.5812 49.9328 51.5389 50.1587 51.3071Z" fill="black" fill-opacity="0.8"/>
<path fill-rule="evenodd" clip-rule="evenodd" d="M31.413 28.2942C32.2499 27.5257 32.9802 27.4324 33.6743 27.965C44.6414 38.9321 50.1602 44.3911 50.1602 44.3911C50.8583 45.0351 51.2738 45.7088 51.4066 46.4122C51.5013 47.0558 51.5851 47.6849 51.658 48.2995C51.6725 48.4222 51.6332 48.4987 51.5824 48.6104C51.4189 48.9692 51.0997 49.3398 50.6249 49.722C49.5404 50.7783 48.9981 51.3065 48.9981 51.3065C48.6779 51.6667 47.9096 51.4901 47.3577 51.3789C46.1093 51.1273 45.9952 51.3293 44.9699 50.3629C34.0215 39.4145 28.5472 33.9402 28.5472 33.9402C28.0223 33.4692 27.7664 33.1077 27.7796 32.8556C27.7697 32.7276 27.7708 32.6077 27.7829 32.4961C27.8251 32.1041 28.1121 31.6847 28.35 31.3726C28.5258 31.1418 28.744 30.902 29.0046 30.6532C29.662 29.9725 30.4648 29.1862 31.413 28.2942Z" fill="black" fill-opacity="0.8"/>
<path fill-rule="evenodd" clip-rule="evenodd" d="M30.0991 29.5927C30.0559 29.6739 30.055 29.7529 30.0651 29.8299C30.0752 29.907 30.0963 29.9821 30.128 30.0573C30.1597 30.1324 30.2019 30.2075 30.2606 30.2885C30.3193 30.3695 30.3945 30.4563 30.6726 30.7415C30.9508 31.0267 31.432 31.5103 31.8464 31.9293C32.2607 32.3484 32.6081 32.7028 33.006 33.1019C33.4039 33.501 33.8522 33.9446 34.1046 34.1911C34.3569 34.4376 34.4133 34.4869 34.4403 34.5104C34.4673 34.5338 34.4649 34.5315 34.9435 34.047C35.4221 33.5625 36.3816 32.596 36.862 32.1133C37.3423 31.6306 37.3435 31.6317 37.3418 31.63C37.34 31.6282 37.3353 31.6235 36.7318 31.0204C36.1283 30.4173 34.9261 29.2158 34.3255 28.6157C33.725 28.0155 33.7261 28.0167 33.6937 27.9914C33.6613 27.9662 33.5952 27.9146 33.5183 27.8659C33.4413 27.8172 33.3534 27.7715 33.2614 27.7351C33.1695 27.6987 33.0734 27.6717 32.9702 27.6566C32.867 27.6415 32.7567 27.6385 32.653 27.6474C32.5492 27.6563 32.4519 27.6771 32.3649 27.703C32.2779 27.7288 32.2012 27.7597 32.101 27.8124C32.0009 27.8651 31.8774 27.9397 31.7646 28.0183C31.6519 28.097 31.5499 28.1797 31.4566 28.2608C31.3633 28.3419 31.2787 28.4213 31.1702 28.5239C31.0618 28.6265 30.9295 28.7523 30.7827 28.8929C30.6359 29.0336 30.4745 29.1891 30.3511 29.3086C30.2277 29.4281 30.1423 29.5115 30.0991 29.5927Z" fill="black"/>
<path fill-rule="evenodd" clip-rule="evenodd" d="M51.5824 48.6103C51.4936 48.7929 51.3952 48.9485 51.2874 49.0769C50.6893 49.0397 50.2053 48.9956 49.8353 48.9447C49.1426 48.9124 48.335 48.4476 47.4126 47.5504L35.8141 35.9165L33.183 38.5758L32.5879 37.9808L38.1363 32.4235L50.5245 44.7579C50.9714 45.2283 51.2654 45.7797 51.4067 46.4122C51.5659 47.5999 51.6455 48.1937 51.6455 48.1937C51.6809 48.3424 51.6599 48.4813 51.5824 48.6103Z" fill="black"/>
</svg>
