<svg width="80" height="80" viewBox="0 0 80 80" fill="none" xmlns="http://www.w3.org/2000/svg">
<circle cx="40" cy="40" r="40" fill="black"/>
<path d="M29.0159 23.416H50.9839C54.3119 23.416 57.0079 26.112 57.0079 29.44V50.56C57.0079 53.888 54.3119 56.584 50.9839 56.584H29.0159C25.6879 56.584 22.9919 53.888 22.9919 50.56V29.44C22.9919 26.112 25.6879 23.416 29.0159 23.416Z" fill="white"/>
<path d="M30.6479 46.672V32.088C30.6479 31.992 30.6879 31.936 30.7919 31.936C31.0319 31.936 31.2559 31.936 31.5839 31.92C31.9279 31.904 32.2799 31.904 32.6639 31.888C33.0479 31.872 33.4559 31.872 33.8959 31.856C34.3359 31.84 34.7599 31.84 35.1839 31.84C36.3439 31.84 37.3119 31.984 38.1039 32.28C38.8159 32.52 39.4639 32.92 39.9999 33.44C40.4559 33.896 40.8079 34.448 41.0319 35.056C41.2479 35.648 41.3599 36.264 41.3599 36.896C41.3599 38.112 41.0799 39.12 40.5119 39.912C39.9439 40.704 39.1519 41.304 38.2319 41.64C37.2719 41.992 36.2079 42.12 35.0399 42.12C34.6959 42.12 34.4719 42.12 34.3279 42.104C34.1839 42.088 33.9839 42.088 33.7199 42.088V46.64C33.7359 46.736 33.6639 46.824 33.5679 46.84C33.5519 46.84 33.5359 46.84 33.5119 46.84H30.8159C30.7039 46.856 30.6479 46.8 30.6479 46.672ZM33.7359 34.672V39.432C33.9359 39.448 34.1199 39.464 34.2879 39.464H35.0399C35.5919 39.464 36.1439 39.376 36.6719 39.208C37.1279 39.08 37.5199 38.808 37.8319 38.456C38.1279 38.104 38.2719 37.616 38.2719 37C38.2879 36.56 38.1759 36.12 37.9439 35.736C37.7039 35.368 37.3599 35.088 36.9519 34.928C36.4239 34.712 35.8639 34.632 35.2799 34.648C34.9119 34.648 34.5839 34.648 34.3199 34.664C34.0319 34.64 33.8319 34.656 33.7359 34.672Z" fill="black"/>
<path d="M50.208 38.568C49.784 38.344 49.328 38.184 48.848 38.088C48.32 37.976 47.8 37.904 47.264 37.904C46.984 37.888 46.68 37.936 46.416 38C46.232 38.04 46.072 38.144 45.976 38.28C45.904 38.392 45.864 38.536 45.864 38.664C45.864 38.792 45.92 38.92 46.008 39.032C46.136 39.184 46.304 39.312 46.488 39.416C46.816 39.584 47.152 39.744 47.496 39.88C48.264 40.136 49 40.488 49.68 40.912C50.144 41.208 50.528 41.608 50.8 42.088C51.024 42.544 51.144 43.04 51.128 43.544C51.144 44.208 50.944 44.88 50.576 45.432C50.176 46 49.624 46.44 48.992 46.696C48.296 46.992 47.448 47.152 46.424 47.152C45.776 47.152 45.136 47.096 44.496 46.968C44 46.88 43.504 46.728 43.048 46.512C42.952 46.456 42.88 46.36 42.896 46.24V43.776C42.896 43.736 42.912 43.68 42.952 43.648C42.992 43.616 43.04 43.632 43.08 43.664C43.632 43.992 44.216 44.216 44.84 44.36C45.376 44.504 45.944 44.576 46.512 44.576C47.048 44.576 47.432 44.504 47.688 44.376C47.912 44.28 48.072 44.032 48.072 43.784C48.072 43.584 47.96 43.4 47.728 43.216C47.504 43.032 47.032 42.816 46.336 42.552C45.616 42.296 44.944 41.96 44.32 41.528C43.88 41.216 43.512 40.808 43.24 40.32C43.016 39.864 42.896 39.368 42.912 38.872C42.912 38.264 43.08 37.68 43.392 37.16C43.744 36.592 44.272 36.136 44.88 35.856C45.544 35.512 46.384 35.36 47.392 35.36C47.976 35.36 48.568 35.4 49.152 35.488C49.576 35.544 49.992 35.656 50.368 35.816C50.424 35.832 50.48 35.888 50.512 35.944C50.528 36 50.544 36.056 50.544 36.112V38.424C50.544 38.48 50.512 38.536 50.472 38.568C50.336 38.6 50.264 38.6 50.208 38.568Z" fill="black"/>
</svg>
